<?xml version="1.0" encoding="utf-8"?>
<!-- Generator: Adobe Illustrator 28.3.0, SVG Export Plug-In . SVG Version: 6.00 Build 0)  -->
<svg version="1.1" id="Layer_1" xmlns="http://www.w3.org/2000/svg" xmlns:xlink="http://www.w3.org/1999/xlink" x="0px" y="0px"
	 viewBox="0 0 282.2 50" style="enable-background:new 0 0 282.2 50;" xml:space="preserve">
<style type="text/css">
	.st0{fill:none;stroke:#010101;stroke-width:1.4783;stroke-linejoin:round;stroke-miterlimit:10;}
</style>
<g>
	<g>
		<path class="st0" d="M5.7,26.4c0-0.5-0.1-1-0.1-1.5c0-9.4,7.6-17,17-17s17,7.6,17,17s-7.6,17-17,17c-6.7,0-12.5-3.9-15.3-9.5"/>
		<polyline class="st0" points="8.9,23.4 5.6,26.6 2.4,23.4 		"/>
	</g>
	<g>
		<path d="M17.4,18h11.3v1.3l-8,13.2h-2.2l8-13.1h-9.1V18z"/>
	</g>
</g>
<g>
	<path d="M56.8,32.1V16.7h9.7v1.5h-8v5.3h7.5V25h-7.5v5.6h7.9v1.5L56.8,32.1L56.8,32.1z"/>
	<path d="M80.9,32.1l-1.7-3.9h-8l-1.7,3.9h-1.8l6.8-15.4H76l6.8,15.4H80.9z M71.8,26.7h6.8l-3.4-7.9L71.8,26.7z"/>
	<path d="M84,30.3l0.7-1.4c0.8,0.6,1.5,1.1,2.3,1.4c0.8,0.3,1.7,0.4,2.8,0.4c1.2,0,2.2-0.2,2.8-0.7s1-1.1,1-2c0-0.5-0.2-0.9-0.5-1.2
		s-0.7-0.6-1.3-0.8s-1.2-0.4-2.1-0.6c-1.2-0.3-2.2-0.6-2.9-0.9s-1.4-0.7-1.8-1.3s-0.7-1.3-0.7-2.2c0-0.9,0.2-1.6,0.7-2.3
		s1.1-1.2,2-1.6s1.8-0.6,2.9-0.6c1.1,0,2.1,0.2,3,0.5s1.7,0.8,2.3,1.4l-0.7,1.4c-0.7-0.6-1.5-1.1-2.2-1.4s-1.6-0.4-2.4-0.4
		c-1.2,0-2.1,0.2-2.8,0.8s-1,1.2-1,2.1c0,0.8,0.3,1.4,0.9,1.7s1.5,0.7,2.7,1c1.3,0.3,2.4,0.6,3.1,0.9c0.8,0.3,1.4,0.7,1.9,1.2
		s0.8,1.3,0.8,2.2c0,0.9-0.2,1.6-0.7,2.3s-1.1,1.2-2,1.5c-0.9,0.4-1.9,0.5-3,0.5C87.4,32.3,85.4,31.6,84,30.3z"/>
	<path d="M109.5,16.7l-6,8.1v7.2h-1.8v-7.3l-6-8.1h2.1l4.9,6.6l4.9-6.6C107.5,16.7,109.5,16.7,109.5,16.7z"/>
	<path d="M135.9,16.7h5.2c2.4,0,4.4,0.7,5.7,2s2,3.2,2,5.7s-0.7,4.4-2,5.7c-1.3,1.3-3.2,2-5.7,2h-5.2V16.7z M141,30.6c4,0,6-2,6-6.2
		c0-4.1-2-6.1-6-6.1h-3.3v12.3C137.7,30.6,141,30.6,141,30.6z"/>
	<path d="M163.4,32.1l-1.7-3.9h-8l-1.7,3.9h-1.8l6.8-15.4h1.6l6.8,15.4H163.4z M154.3,26.7h6.8l-3.4-7.9L154.3,26.7z"/>
	<path d="M177.4,16.7l-6,8.1v7.2h-1.8v-7.3l-6-8.1h2.1l4.9,6.6l4.9-6.6C175.3,16.7,177.4,16.7,177.4,16.7z"/>
	<path d="M196.6,32.1h-2l-2.6-4.9c-0.3-0.6-0.7-1-1.1-1.2c-0.4-0.2-1-0.3-1.8-0.3h-2.9v6.5h-1.8V16.7h6.3c1.7,0,2.9,0.4,3.8,1.1
		s1.3,1.8,1.3,3.3c0,1.2-0.3,2.1-1,2.9c-0.7,0.7-1.6,1.2-2.9,1.4c0.4,0.1,0.7,0.3,1,0.6c0.3,0.3,0.6,0.6,0.8,1.1L196.6,32.1z
		 M190.7,24.1c1.2,0,2.1-0.2,2.7-0.7s0.9-1.2,0.9-2.2c0-1-0.3-1.7-0.9-2.2c-0.6-0.5-1.5-0.7-2.7-0.7h-4.4v5.9H190.7z"/>
	<path d="M199.4,32.1V16.7h9.7v1.5h-7.9v5.3h7.5V25h-7.5v5.6h7.9v1.5L199.4,32.1L199.4,32.1z"/>
	<path d="M215.5,32.1V18.3h-5.3v-1.5h12.5v1.5h-5.4v13.8L215.5,32.1L215.5,32.1z"/>
	<path d="M226.3,30.7c-1-1-1.6-2.6-1.6-4.6v-9.3h1.8v9.5c0,1.5,0.4,2.6,1.1,3.4c0.7,0.8,1.8,1.1,3.2,1.1s2.5-0.4,3.2-1.1
		s1.1-1.9,1.1-3.4v-9.5h1.8v9.3c0,2-0.5,3.5-1.6,4.6c-1,1-2.6,1.6-4.5,1.6C228.8,32.3,227.3,31.7,226.3,30.7z"/>
	<path d="M252.7,32.1h-2l-2.6-4.9c-0.3-0.6-0.7-1-1.1-1.2c-0.4-0.2-1-0.3-1.8-0.3h-2.9v6.5h-1.8V16.7h6.3c1.7,0,2.9,0.4,3.8,1.1
		s1.3,1.8,1.3,3.3c0,1.2-0.3,2.1-1,2.9c-0.7,0.7-1.6,1.2-2.9,1.4c0.4,0.1,0.7,0.3,1,0.6c0.3,0.3,0.6,0.6,0.8,1.1L252.7,32.1z
		 M246.8,24.1c1.2,0,2.1-0.2,2.7-0.7s0.9-1.2,0.9-2.2c0-1-0.3-1.7-0.9-2.2c-0.6-0.5-1.5-0.7-2.7-0.7h-4.4v5.9H246.8z"/>
	<path d="M266.2,16.7h1.7v15.4h-1.4l-9.2-12.3v12.3h-1.7V16.7h1.4l9.2,12.3V16.7z"/>
	<path d="M270.8,30.3l0.7-1.4c0.8,0.6,1.5,1.1,2.3,1.4c0.8,0.3,1.7,0.4,2.8,0.4c1.2,0,2.2-0.2,2.9-0.7s1-1.1,1-2
		c0-0.5-0.2-0.9-0.5-1.2s-0.7-0.6-1.3-0.8s-1.2-0.4-2.1-0.6c-1.2-0.3-2.2-0.6-2.9-0.9s-1.4-0.7-1.9-1.3s-0.7-1.3-0.7-2.2
		c0-0.9,0.2-1.6,0.7-2.3s1.1-1.2,2-1.6s1.8-0.6,3-0.6c1.1,0,2,0.2,3,0.5s1.7,0.8,2.3,1.4l-0.7,1.4c-0.7-0.6-1.5-1.1-2.2-1.4
		s-1.6-0.4-2.4-0.4c-1.2,0-2.1,0.2-2.8,0.8s-1,1.2-1,2.1c0,0.8,0.3,1.4,0.9,1.7c0.6,0.4,1.5,0.7,2.7,1c1.3,0.3,2.4,0.6,3.1,0.9
		c0.8,0.3,1.4,0.7,1.9,1.2s0.8,1.3,0.8,2.2c0,0.9-0.2,1.6-0.7,2.3s-1.1,1.2-2,1.5c-0.9,0.4-1.9,0.5-3,0.5
		C274.1,32.3,272.2,31.6,270.8,30.3z"/>
</g>
<g>
	<path d="M116.1,17h12.4v1.3l-8.8,13.9h-2.4l8.8-13.8h-10V17z"/>
</g>
</svg>
